# xmcd
# Track frame offsets:
# 150
# 22070
# 38310
# 57162
# 75375
# 90212
# 108552
# 130727
# 147132
# 167397
#
# Disc length: 2481 seconds
# Revision: 2
# Processed by: cddbd v1.5.1PL2 Copyright (c) Steve Scherf et al.
# Submitted via: VisiTrax 2.10.0.248 - For more info visit www.synapsa.com
#
DISCID=6909af0a
DTITLE=The Angels - The Angels
DYEAR=1977
DGENRE=
TTITLE0=Take me home
TTITLE1=You're a lady now
TTITLE2=Goin' down
TTITLE3=Shelter from the rain
TTITLE4=Can't get lucky
TTITLE5=Am I ever gonna see your face again
TTITLE6=You got me runnin'
TTITLE7=High on you
TTITLE8=Hot Lucy
TTITLE9=Dreambuilder
EXTD=
EXTT0=
EXTT1=
EXTT2=
EXTT3=
EXTT4=
EXTT5=
EXTT6=
EXTT7=
EXTT8=
EXTT9=
PLAYORDER=
